# xmcd
#
# Track frame offsets:
#	150
#	16425
#	32760
#	48718
#	64315
#	86042
#	102150
#	123774
#	141064
#	165790
#	183191
#	197773
#	215739
#	231010
#	244856
#
# Disc length: 3533 seconds
#
# Revision: 1
# Processed by: cddbd v1.5.2PL0 Copyright (c) Steve Scherf et al.
# Submitted via: audiograbber 1.83.01
#
DISCID=cb0dcb0f
DTITLE=Various Artist - Rewind The 80s Album CD3
DYEAR=1900
DGENRE=Pop
TTITLE0=Kool and The Gang - Get Down On It (Single Version)
TTITLE1=Earth Wind and Fire - September
TTITLE2=The Real Thing - You To Me Are Everything
TTITLE3=Odyssey - Going Back To My Roots
TTITLE4=The Pointer Sisters - Automatic
TTITLE5=The Weather Girls - It's Raining Men
TTITLE6=Village People - Y.M.C.A.
TTITLE7=Gloria Gaynor - I Will Survive (Single Version)
TTITLE8=Average White Band - Let's Go Round Again
TTITLE9=Imagination - Just An Illusion
TTITLE10=Grandmaster Flash and The Furious Five - The Message
TTITLE11=The Sugarhill Gang - Rapper's Delight
TTITLE12=Aswad - Don't Turn Around
TTITLE13=UB40 - Red Red Wine
TTITLE14=10CC - Dreadlock Holiday
EXTD=(p)2014 Inspired Records
EXTT0=
EXTT1=
EXTT2=
EXTT3=
EXTT4=
EXTT5=
EXTT6=
EXTT7=
EXTT8=
EXTT9=
EXTT10=
EXTT11=
EXTT12=
EXTT13=
EXTT14=
PLAYORDER=
